<?xml version="1.0" encoding="utf-8"?>
<!-- Generator: Adobe Illustrator 18.1.1, SVG Export Plug-In . SVG Version: 6.00 Build 0)  -->
<svg version="1.1" id="Layer_1" xmlns="http://www.w3.org/2000/svg" xmlns:xlink="http://www.w3.org/1999/xlink" x="0px" y="0px"
	 viewBox="0 0 150 30" enable-background="new 0 0 150 30" xml:space="preserve">
<path fill="#F93F23" d="M26.39,20.902c-0.657,0-1.055-0.271-1.311-0.652V9.522c0.401-0.306,0.899-0.528,1.499-0.528
	c2.069,0,2.622,2.662,2.622,5.701C29.2,19.219,27.945,20.902,26.39,20.902 M28.886,6.538c-1.563,0-2.872,0.717-3.82,1.807
	L24.94,6.844h-5.498L19.411,30h5.667v-7.244v-0.5c0.789,0.674,1.904,1.042,3.083,1.042c3.779,0,6.634-3.555,6.634-8.393
	C34.796,10.425,32.872,6.538,28.886,6.538 M91.871,6.891h5.649v16.033h-5.649V6.891z M90.371,9.89c0,1.867-1.068,3.136-2.801,3.136
	c-1.698,0-2.597-1.223-2.597-2.425c0-0.407,0.134-1.184,0.536-1.763c-0.699-0.376-2.689,0.43-3.413,2.739v11.353h-5.646V6.896h5.572
	l0.074,2.685c1.011-1.913,2.557-3.037,4.47-3.037C89.053,6.544,90.371,8.106,90.371,9.89 M68.559,6.891h5.654v16.033h-5.654
	c0,0-0.004-1.529,0-3.56c-0.577,1.555-1.94,3.933-4.857,3.933c-3.022,0-4.489-2.379-4.489-4.941V9.21
	c0-1.218-0.329-1.799-0.782-2.021L58.43,6.891h6.438v9.854c0,2.44,1.082,2.608,1.733,2.608c0.899,0,1.555-0.777,1.959-1.887
	C68.564,14.011,68.559,6.891,68.559,6.891 M147.408,17.729c0,3.242-2.888,5.543-7.038,5.543c-2.174,0-4.271-1.087-5.442-1.087
	c-0.851,0-1.061,0.246-1.061,0.246l-0.196-4.438h0.487c2.271,3.015,3.843,4.329,6.179,4.33c1.524,0,2.789-0.75,2.789-2.047
	c0-1.394-1.265-1.718-3.081-2.172c-4.898-1.265-6.261-3.39-6.261-6.242c0-3.177,2.758-5.316,6.228-5.316
	c1.193,0,2.285,0.232,3.143,0.521c0.518,0.175,2.043,0.836,3.053,0.754v4.3h-0.455c-1.913-2.787-3.567-4.634-5.675-4.634
	c-1.323,0-2.077,0.833-2.077,1.904c0,1.296,1.233,1.653,3.439,2.302C145.398,12.859,147.408,14.39,147.408,17.729 M126.278,6.891
	h5.654v16.033h-5.654c0,0-0.004-1.529,0-3.56c-0.577,1.555-1.94,3.933-4.857,3.933c-3.022,0-4.489-2.379-4.489-4.941V9.21
	c0-1.218-0.329-1.799-0.782-2.021l-0.001-0.298h6.438v9.854c0,2.44,1.082,2.608,1.733,2.608c0.899,0,1.555-0.777,1.959-1.887
	C126.283,14.011,126.278,6.891,126.278,6.891 M107.176,22.288c-1.624,0-2.222-2.228-2.222-7.386c0-5.159,0.598-7.386,2.222-7.386
	c1.624,0,2.221,2.227,2.221,7.386C109.397,20.06,108.799,22.288,107.176,22.288 M107.176,6.539c-5.103,0-8.058,3.744-8.058,8.363
	c0,4.618,2.955,8.363,8.058,8.363c5.102,0,8.057-3.744,8.057-8.363C115.233,10.283,112.278,6.539,107.176,6.539 M36.402,6.891h5.646
	v16.033h-5.666L36.402,6.891z M57.466,17.622l0.364,0.122c-0.412,2.133-2.376,5.554-6.788,5.554c-4.981,0-7.386-3.886-7.386-8.366
	c0-4.838,3.178-8.393,7.9-8.393c3.502,0,5.665,1.881,5.665,3.887c0,1.226-0.925,2.22-2.3,2.22c-1.003,0-2.023-0.934-2.023-2.065
	c0-1.155,0.707-1.8,1.539-1.937c-0.282-0.527-0.784-0.93-1.683-0.93c-1.536,0-3.29,1.926-3.29,6.523
	c0,3.039,1.457,5.701,4.462,5.701C56.352,19.938,57.466,17.622,57.466,17.622 M91.914,2.551C91.914,1.141,93.15,0,94.676,0
	c1.526,0,2.762,1.141,2.762,2.551c0,1.409-1.236,2.551-2.762,2.551C93.15,5.101,91.914,3.959,91.914,2.551 M36.454,2.551
	C36.454,1.142,37.69,0,39.216,0c1.525,0,2.761,1.142,2.761,2.551c0,1.409-1.236,2.551-2.761,2.551
	C37.69,5.101,36.454,3.959,36.454,2.551 M8.922,15.199c-0.501-3.476,0.493-7.279,1.914-7.279c1.448,0,2.04,2.862,2.048,6.209
	L8.922,15.199z M10.787,6.556c-5.151,0-8.195,3.905-8.195,8.376c0,2.677,1.064,5.141,2.984,6.688
	c1.246,1.084,2.905,1.743,4.95,1.743c5.248,0,7.037-4.332,7.261-5.571l-0.016-0.005c0.006-0.025,0.011-0.052,0.016-0.076
	l-0.366-0.124c0,0-1.762,2.319-4.404,2.319c-0.833,0-1.62-0.287-2.281-0.754C9.96,18.513,9.42,17.575,9.21,16.566l8.885-2.505
	c-0.001-0.026-0.006-0.052-0.007-0.079l0.007-0.002C17.911,9.666,14.815,6.556,10.787,6.556"/>
</svg>
